<?xml version="1.0" encoding="utf-8"?>
<!-- Generator: Adobe Illustrator 24.1.1, SVG Export Plug-In . SVG Version: 6.00 Build 0)  -->
<svg version="1.1" id="Capa_1" xmlns="http://www.w3.org/2000/svg" xmlns:xlink="http://www.w3.org/1999/xlink" x="0px" y="0px"
	 viewBox="0 0 225 225" style="enable-background:new 0 0 225 225;" xml:space="preserve">
<style type="text/css">
	.st0{fill:#004BF1;}
	.st1{fill:none;stroke:#FFFFFF;stroke-width:0.5;stroke-linecap:round;stroke-linejoin:round;stroke-miterlimit:10;}
	.st2{opacity:0.2;fill:url(#SVGID_1_);}
	.st3{fill:#00826F;}
	.st4{opacity:0.2;}
	.st5{fill:#00BFA4;}
	.st6{opacity:0.2;fill:url(#SVGID_2_);}
	.st7{opacity:0.2;fill:url(#SVGID_3_);}
	.st8{fill:#AC2255;}
	.st9{fill:#FFCF00;}
	.st10{fill:#FF137C;}
	.st11{fill:none;stroke:#FFFFFF;stroke-width:0.5169;stroke-linecap:round;stroke-linejoin:round;stroke-miterlimit:10;}
	.st12{fill:none;stroke:#AC2255;stroke-width:0.5169;stroke-miterlimit:10;}
	.st13{fill:none;stroke:#FFFFFF;stroke-width:0.75;stroke-linecap:round;stroke-linejoin:round;stroke-miterlimit:10;}
	.st14{fill:#FFFFFF;}
	.st15{fill:none;stroke:#B5B5B5;stroke-width:0.7713;stroke-miterlimit:10;}
	.st16{fill:#387DE1;}
	.st17{fill:none;stroke:#FFCF00;stroke-width:0.5;stroke-linecap:round;stroke-linejoin:round;stroke-miterlimit:10;}
	.st18{fill:#D30CFF;}
	.st19{fill:#77B2FF;}
	.st20{fill:#8F26FF;}
	.st21{fill:#2A83FF;}
	.st22{fill:#0209FF;}
	.st23{fill:#1E2430;}
	.st24{fill:none;stroke:#002C97;stroke-width:0.5;stroke-miterlimit:10;}
	.st25{fill:none;stroke:#FFCF00;stroke-width:0.5;stroke-miterlimit:10;}
	.st26{opacity:0.15;fill:none;stroke:#FFFFFF;stroke-width:0.5;stroke-miterlimit:10;}
	.st27{fill:url(#SVGID_4_);}
	.st28{fill:url(#SVGID_5_);}
	.st29{fill:url(#SVGID_6_);}
	.st30{fill:url(#SVGID_7_);}
</style>
<g>
	<g>
		<path class="st0" d="M6.45,96.74c5.63-3.67,11.46,3.09,14.27,9.54c2.81,6.45,5.32,13.44,12.08,15.42
			c6.76,1.98,10.46,3.11,12.54,8.91c2.08,5.8,1.92,7.56,6.41,10.79c4.48,3.23,9.13,9,9.79,15.43L38.16,167.5
			c0,0-6.01-2.44-11.89-9.78c-5.88-7.34-4.49-12.35-6.59-15.52c-2.11-3.17-9.58-4.55-10.99-10.51c-1.41-5.96,1.02-10.23-2.09-16.73
			C3.49,108.46,1.99,99.66,6.45,96.74z"/>
		<path class="st1" d="M9.81,100.39c7.43,19.84,11.71,30.56,40.41,61.61"/>
		<path class="st1" d="M16.55,102.55c0,0,0.91,5.22-0.54,13.19"/>
		<path class="st1" d="M9.56,119.33c0,0,1.23,2.27,12.43,7.57"/>
		<path class="st1" d="M35.07,124.25c0,0,3.85,14.36,0.72,21.41"/>
		<path class="st1" d="M24.64,152.35c0,0,8.36,3.33,18.1,1.39"/>
	</g>
	<g>
		<path class="st0" d="M218.39,126.87c4.88,1.94,2.53,10.84,0.48,15.84c-2.05,5,3.43,12.1-10.69,20.4l-17.44-10.57
			c0,0,4.21-12.24,11.06-14.7C208.84,135.3,211.53,124.15,218.39,126.87z"/>
		<path class="st1" d="M217.35,129.1c0,0-6.51,15.89-17.88,28.72"/>
		<path class="st1" d="M212.57,128.88c0,0-1.58,5.64-0.35,10.44"/>
		<path class="st1" d="M217.08,148.18c0,0-8.08,3.04-12.59,3.35"/>
	</g>
	<linearGradient id="SVGID_1_" gradientUnits="userSpaceOnUse" x1="124.1167" y1="195.8515" x2="246.9008" y2="195.8515">
		<stop  offset="0" style="stop-color:#FFFFFF"/>
		<stop  offset="1" style="stop-color:#000000"/>
	</linearGradient>
	<path class="st2" d="M96.62,167.27H219.4c0,0-5.4,12.17-17.09,12.8c0,0,1.08,12.57-9.43,16.21c-10.86,3.76-14.62,3.66-23.6,13.37
		c-8.98,9.7-16.7,15.55-31.74,14.72C122.51,223.52,105.8,211.7,96.62,167.27z"/>
	<path class="st3" d="M96.62,167.27H219.4c0,0-5.4-12.17-17.09-12.8c0,0,1.08-12.57-9.43-16.21c-10.86-3.76-14.62-3.67-23.6-13.37
		c-8.98-9.7-16.7-15.55-31.74-14.72C122.51,111.01,105.8,122.84,96.62,167.27z"/>
	<polygon class="st4" points="165.05,19.28 165.05,43.85 156.12,49.48 165.05,49.1 165.05,53.8 201.79,53.8 201.79,19.28 	"/>
	<path class="st5" d="M12.25,170.93h143.21c0,0-0.79-15.23-17.92-21.71c-17.13-6.47-17.54-6.06-23.18-13.57S101.9,124.16,94.04,125
		c-7.86,0.84-11.97,3.76-11.97,3.76s-11.76-3.97-19.91,0.84c-8.14,4.8-16.08,19.63-16.08,19.63S13.3,153.59,12.25,170.93z"/>
	<linearGradient id="SVGID_2_" gradientUnits="userSpaceOnUse" x1="83.8605" y1="198.8694" x2="83.8605" y2="164.2961">
		<stop  offset="0" style="stop-color:#FFFFFF"/>
		<stop  offset="1" style="stop-color:#000000"/>
	</linearGradient>
	<path class="st6" d="M12.25,170.93h143.21c0,0-0.79,15.23-17.92,21.71c-17.13,6.47-17.54,6.06-23.18,13.57
		c-5.64,7.52-12.46,11.48-20.33,10.65c-7.86-0.84-11.97-3.76-11.97-3.76s-11.76,3.97-19.91-0.84c-8.14-4.8-16.08-19.63-16.08-19.63
		S13.3,188.27,12.25,170.93z"/>
	<g>
		<linearGradient id="SVGID_3_" gradientUnits="userSpaceOnUse" x1="159.3151" y1="189.536" x2="159.3151" y2="167.6797">
			<stop  offset="0" style="stop-color:#FFFFFF"/>
			<stop  offset="1" style="stop-color:#000000"/>
		</linearGradient>
		<path class="st7" d="M174.72,175.43c-3.46,3.04-8.04,5.06-13.13,5.53v41.47h-4.56v-41.47c-5.09-0.47-9.67-2.49-13.13-5.53
			c-0.67-0.59-0.27-1.69,0.62-1.69h29.58C175,173.74,175.39,174.84,174.72,175.43z"/>
		<rect x="157.03" y="125.91" class="st0" width="4.56" height="43.57"/>
		<polygon class="st4" points="161.6,144.94 161.6,125.91 157.03,125.91 157.03,139.61 		"/>
		<path class="st0" d="M173.38,127.28h-28.13c-0.93,0-1.73-0.85-1.92-2.04l-0.61-3.75c-0.26-1.6,0.67-3.1,1.92-3.1h29.34
			c1.25,0,2.18,1.5,1.92,3.1l-0.61,3.75C175.11,126.43,174.31,127.28,173.38,127.28z"/>
		<path class="st0" d="M159.32,167.27c-6,0-11.44,2.15-15.41,5.64c-0.67,0.59-0.27,1.69,0.62,1.69h29.58c0.89,0,1.29-1.1,0.62-1.69
			C170.75,169.42,165.32,167.27,159.32,167.27z"/>
		<path class="st0" d="M174.72,172.91c-3.46-3.04-8.04-5.06-13.13-5.53v-41.47h-4.56v41.47c-5.09,0.47-9.67,2.49-13.13,5.53
			c-0.67,0.59-0.27,1.69,0.62,1.69h29.58C175,174.59,175.39,173.49,174.72,172.91z"/>
	</g>
	<g>
		<g>
			<path class="st8" d="M46.01,114.06h-3.85c-0.36,0-0.66-0.29-0.66-0.66v-1.32c0-0.36,0.29-0.66,0.66-0.66h3.85
				c0.36,0,0.66,0.29,0.66,0.66v1.32C46.67,113.77,46.38,114.06,46.01,114.06z"/>
			<path class="st9" d="M52.22,92.6c0-4.49-3.64-8.13-8.13-8.13c-4.49,0-8.13,3.64-8.13,8.13c0,1.64,0.49,3.49,1.32,5.17
				c0.95,1.91,1.56,3.98,1.64,6.12l0.11,1.67h10.13l0.11-1.67c0.08-2.14,0.69-4.2,1.64-6.12C51.73,96.08,52.22,94.24,52.22,92.6z"/>
			<path class="st10" d="M48.24,112.57h-8.31c-0.68,0-1.23-0.55-1.23-1.23v-5.79h10.76v5.79C49.47,112.02,48.92,112.57,48.24,112.57
				z"/>
			<path class="st11" d="M46.04,99.12V94.6h0c-0.01-1.65-0.29-2.31-0.62-2.31c-0.17,0-0.33,0.17-0.44,0.57
				c-0.11-0.39-0.27-0.57-0.44-0.57s-0.33,0.17-0.44,0.57c-0.11-0.39-0.27-0.57-0.44-0.57c-0.17,0-0.33,0.17-0.44,0.57
				c-0.11-0.39-0.27-0.57-0.44-0.57c-0.34,0-0.61,0.67-0.62,2.31h0v4.52"/>
			<g>
				<line class="st12" x1="38.71" y1="107.14" x2="49.47" y2="107.14"/>
				<line class="st12" x1="38.71" y1="108.42" x2="49.47" y2="108.42"/>
				<line class="st12" x1="38.71" y1="109.7" x2="49.47" y2="109.7"/>
				<line class="st12" x1="38.71" y1="110.99" x2="49.47" y2="110.99"/>
			</g>
		</g>
		<g>
			<g>
				<line class="st13" x1="44.31" y1="77.68" x2="44.31" y2="81.23"/>
				<line class="st13" x1="36.47" y1="79.78" x2="38.25" y2="82.85"/>
				<g>
					<line class="st13" x1="30.74" y1="85.51" x2="33.81" y2="87.29"/>
					<line class="st13" x1="54.43" y1="99.19" x2="57.5" y2="100.97"/>
				</g>
				<g>
					<line class="st13" x1="28.64" y1="93.35" x2="32.19" y2="93.35"/>
					<line class="st13" x1="55.99" y1="93.35" x2="59.54" y2="93.35"/>
				</g>
				<g>
					<line class="st13" x1="30.74" y1="101.19" x2="33.81" y2="99.41"/>
					<line class="st13" x1="54.43" y1="87.51" x2="57.5" y2="85.74"/>
				</g>
				<line class="st13" x1="50.15" y1="83.24" x2="51.93" y2="80.16"/>
			</g>
		</g>
	</g>
	<polygon class="st14" points="47.77,69.66 51.98,60.39 41.84,61.28 43.7,63.91 34.79,69.47 37.7,73.59 45.91,67.03 	"/>
	<polygon class="st14" points="210.77,50.24 206.56,40.97 216.7,41.87 214.84,44.5 223.75,50.05 220.84,54.17 212.63,47.61 	"/>
	<path class="st14" d="M23.18,45.3H75.6c0,0,0.28-13.43-12.53-11.9c0,0-3.13-7.8-13.36-5.99c-10.23,1.81-10.3,9.68-10.3,9.68
		s-7.45-2.23-9.54,4.87C29.87,41.96,24.09,42.31,23.18,45.3z"/>
	<g>
		<path class="st14" d="M86.23,16.63l-1.02,0.82l-1.02,0.82c2.13,3.65,3.12,9.08,3.12,9.08c1.87-0.46,4.38,2.48,4.38,2.48l4.18-3.35
			c0,0-2.32-3.09-1.47-4.82C94.42,21.65,89.33,19.5,86.23,16.63z"/>
		<line class="st15" x1="85.21" y1="17.45" x2="90.4" y2="23.92"/>
		<path class="st15" d="M91.62,23.92c0.33,0.41,0.26,1.01-0.15,1.34c-0.41,0.33-1.01,0.26-1.34-0.15c-0.33-0.41-0.26-1.01,0.15-1.34
			C90.69,23.44,91.29,23.51,91.62,23.92z"/>
		
			<rect x="92.2" y="27.56" transform="matrix(0.7803 -0.6254 0.6254 0.7803 2.061 66.3568)" class="st16" width="6.55" height="5.37"/>
		<path class="st0" d="M94.6,34.39l17.6,21.96c0.29,0.36,1.67-0.26,3.08-1.39c1.41-1.13,2.32-2.34,2.03-2.7l-17.6-21.96L94.6,34.39z
			"/>
	</g>
	<path class="st17" d="M92.75,38.97c-4.39,9.81-15.01,19.01-24.22,18.48c-7.9-0.45-7.76-4.63-6.68-6.16
		c1.3-1.85,5.85-1.65,5.95,2.88c0.1,4.53-2.57,9.44-6.82,13.72c-4.25,4.28-6.56,9.29-6.56,9.29"/>
	<path class="st17" d="M101.73,27.14c2.92-5.5,8.87-10.41,15.03-12.71c6.16-2.3,11.59-4.28,12.74-7.93c1.15-3.65-2.4-6.06-6.26-4.28
		c-3.86,1.77-3.24,9.19,5.85,8.56c9.08-0.63,25.89-2.92,30.17,5.01"/>
	<polygon class="st9" points="163.84,17.45 163.84,42.02 154.92,47.65 163.84,47.27 163.84,51.97 200.59,51.97 200.59,17.45 	"/>
	<g>
		<circle class="st14" cx="178.54" cy="30.2" r="8.32"/>
		<rect x="178.54" y="30.2" class="st14" width="14.13" height="14.13"/>
		<path class="st10" d="M178.54,38.51c4.59,0,8.32-3.72,8.32-8.32h-8.32V38.51z"/>
	</g>
	<g>
		<g class="st4">
			<path d="M211.24,122.84h-18.57c-2.67,0-4.83-2.16-4.83-4.83V64.84c0-2.67,2.16-4.83,4.83-4.83h18.57c2.67,0,4.83,2.16,4.83,4.83
				v53.16C216.07,120.67,213.9,122.84,211.24,122.84z"/>
		</g>
		<g>
			<path class="st14" d="M209.71,121.14h-18.57c-2.67,0-4.83-2.16-4.83-4.83V63.15c0-2.67,2.16-4.83,4.83-4.83h18.57
				c2.67,0,4.83,2.16,4.83,4.83v53.16C214.54,118.98,212.37,121.14,209.71,121.14z"/>
			<path class="st9" d="M198.28,67.33c0,1.8-1.46,3.26-3.26,3.26c-1.8,0-3.26-1.46-3.26-3.26s1.46-3.26,3.26-3.26
				C196.83,64.07,198.28,65.53,198.28,67.33z"/>
			<circle class="st10" cx="205.82" cy="67.33" r="3.26"/>
			<path class="st3" d="M198.28,77.39c0,1.8-1.46,3.26-3.26,3.26c-1.8,0-3.26-1.46-3.26-3.26s1.46-3.26,3.26-3.26
				C196.83,74.13,198.28,75.59,198.28,77.39z"/>
			<path class="st18" d="M209.08,77.39c0,1.8-1.46,3.26-3.26,3.26c-1.8,0-3.26-1.46-3.26-3.26s1.46-3.26,3.26-3.26
				C207.62,74.13,209.08,75.59,209.08,77.39z"/>
			<path class="st19" d="M198.28,87.45c0,1.8-1.46,3.26-3.26,3.26c-1.8,0-3.26-1.46-3.26-3.26c0-1.8,1.46-3.26,3.26-3.26
				C196.83,84.19,198.28,85.65,198.28,87.45z"/>
			<path class="st20" d="M209.08,87.45c0,1.8-1.46,3.26-3.26,3.26c-1.8,0-3.26-1.46-3.26-3.26c0-1.8,1.46-3.26,3.26-3.26
				C207.62,84.19,209.08,85.65,209.08,87.45z"/>
			<path class="st21" d="M198.28,97.51c0,1.8-1.46,3.26-3.26,3.26c-1.8,0-3.26-1.46-3.26-3.26s1.46-3.26,3.26-3.26
				C196.83,94.25,198.28,95.71,198.28,97.51z"/>
			<circle class="st22" cx="205.82" cy="97.51" r="3.26"/>
			<g>
				<path class="st19" d="M204.83,108.25l-2.41-2.41l-6.78,6.78c-0.48,0.48-0.69,1.17-0.57,1.84l0,0c0.04,0.21-0.03,0.42-0.17,0.56
					l-0.61,0.61c-0.21,0.21-0.21,0.55,0,0.75l0,0c0.21,0.21,0.55,0.21,0.75,0l0.61-0.61c0.15-0.15,0.36-0.21,0.56-0.17l0,0
					c0.67,0.13,1.36-0.09,1.84-0.57L204.83,108.25z"/>
				<path class="st10" d="M205.81,107.92l-0.44-0.44l0.89-0.89c0.61-0.61,0.61-1.59,0-2.19c-0.61-0.61-1.59-0.61-2.19,0l-0.89,0.89
					l-0.44-0.44c-0.18-0.18-0.47-0.18-0.66,0c-0.18,0.18-0.18,0.47,0,0.66l3.07,3.07c0.18,0.18,0.47,0.18,0.66,0
					C205.99,108.39,205.99,108.1,205.81,107.92z"/>
			</g>
		</g>
	</g>
	<g>
		<path class="st0" d="M121.58,163.35l-0.56,6.82c0,0-8.35,3.34-8.35,4.45c0,1.11,14.76,1.46,15.31,0
			c0.56-1.46,1.25-11.28,1.25-11.28H121.58z"/>
		<path class="st0" d="M104.49,163.35l-2.1,6.82c0,0-8.35,3.34-8.35,4.45c0,1.11,14.76,1.46,15.31,0
			c0.56-1.46,2.79-11.28,2.79-11.28H104.49z"/>
		<path class="st9" d="M151.74,101.4c0,0-32.78,1.74-37.1,11.35c-4.37,9.73-11.28,52.03-11.28,52.03h9.22l12.32-45.21
			c0,0,32.58-0.99,39.78-4.28c7.2-3.3,10.02-13.89,10.02-13.89H151.74z"/>
		<path class="st4" d="M116.63,149.98l8.29-30.41c0,0,32.58-0.99,39.78-4.28c7.2-3.3,10.02-13.89,10.02-13.89h-22.97
			c0,0-32.78,1.74-37.1,11.35c-0.49,1.1-1.02,2.62-1.57,4.45L116.63,149.98z"/>
		<path class="st9" d="M174.71,101.4c0,0,1.88,5.32,0,11.59c-1.88,6.26-8.77,7.73-14.72,7.73h-19.85c-1.54,0-2.85,1.11-3.1,2.63
			l-6.81,41.43h-10.65c0,0,1.15-37.78,3.55-46.04c3.62-12.46,12.95-13.03,35.6-15.01L174.71,101.4z"/>
		<path class="st0" d="M136.46,59.54c-4.28,3.65-6.47,29.23-6.47,29.23l-18.17,4.18v5.43l19.4-1.07c3.1-0.17,5.68-2.43,6.27-5.47
			l3.56-18.41L136.46,59.54z"/>
		<path class="st14" d="M135.14,95.87c0,0-4.52,0.81-6.42,1.31c-1.65,0.43-9.27,4.49-9.27,5.35c0,0.86,5.22,0.57,5.22,0.57
			s5.3-1.28,6.08-2.9l5.35-0.34L135.14,95.87z"/>
		<path class="st4" d="M137.88,89.81l3.17-16.38l-4.59-13.89c-1.87,1.6-3.34,7.38-4.41,13.39L137.88,89.81z"/>
		<path class="st0" d="M146.11,54.52c6.12-0.88,14.51-0.42,18.58,4.8s9.4,27.77,10.02,33.51c0.63,5.74,3.34,9.29-2.09,9.29
			s-16.39,0-21.4,0c-5.01,0-5.22-0.63-5.12-6.16c0.1-5.53-0.73-11.17-6.26-20.36c-5.53-9.19-5.64-13.36-3.76-16.08
			C137.96,56.82,143.15,54.95,146.11,54.52z"/>
		<path class="st4" d="M146.11,95.97c-0.1,5.53,0.1,6.16,5.12,6.16c5.01,0,15.97,0,21.4,0c5.43,0,2.71-3.55,2.09-9.29
			c-0.63-5.74-5.95-28.29-10.02-33.52c-0.23-0.3-0.48-0.57-0.74-0.84l-18.21,31.71C146.06,92.22,146.14,94.1,146.11,95.97z"/>
		<path class="st0" d="M161.27,56.95c6.17,0.52,5.72,16.27,5.72,21.69s0.1,15.97-5.22,17.65c-5.32,1.67-26.83,4.7-26.83,4.7
			l-0.78-5.32l21.77-7.2c0,0,0.42-13.47,0.52-18.06C156.54,65.8,155.34,56.45,161.27,56.95z"/>
		<path class="st0" d="M136.3,43.94c0.82,1.85,0.41,3.82-0.92,4.41c-1.32,0.59-3.06-0.44-3.88-2.28c-0.82-1.85-0.41-3.82,0.92-4.41
			C133.74,41.07,135.48,42.09,136.3,43.94z"/>
		<path class="st14" d="M133.11,43.46c1.09,4.16,1.91,6.46,2.54,8.02c0.63,1.56,2.71,1.97,5.47,1.22c0,0,1.07,3.17,1.8,4.83
			c0.73,1.66,8.51,0.6,7.57-2.31c-0.94-2.92-2.16-6.29-2.16-6.29s3.25-14.58-7.03-15.54S130.24,41.77,133.11,43.46z"/>
		<path class="st23" d="M137.7,36.77c0,0,2.42,3.5,6.43,3.56c0,0,0.83,6.08,4.2,8.59c0,0,5.22-2.52,3.38-5.59
			c0,0,4.52-2.64-0.89-7.86c0,0,3.35-1.24,3.22-2.65c-0.13-1.41-6.33-0.47-6.33-0.47s-7.1-9.47-11.73-8.6
			c-2.61,0.49-3.06,4.6-3.06,4.6s-5.48-2.15-7.64,0.86s2.8,8.59,2.8,8.59s-2.14,0.67-2.1,2.33c0.08,3.3,7.13,3.31,7.13,3.31
			l-0.19-2.09c0,0,2.04,0.49,1.85-0.18c-0.19-0.68-1.21-1.6-1.21-1.6S136.87,38.74,137.7,36.77z"/>
		
			<ellipse transform="matrix(0.1979 -0.9802 0.9802 0.1979 75.5126 178.4718)" class="st0" cx="146.81" cy="43.09" rx="3.66" ry="2.62"/>
		<g>
			<g>
				<path class="st0" d="M147.62,42.88c-0.07,0-0.14-0.01-0.22-0.03c-0.45-0.12-0.71-0.58-0.59-1.02
					c1.19-4.44,0.27-10.61,0.26-10.67c-0.07-0.46,0.24-0.88,0.7-0.95c0.46-0.07,0.88,0.24,0.95,0.7c0.04,0.27,0.98,6.58-0.3,11.36
					C148.33,42.64,147.99,42.88,147.62,42.88z"/>
			</g>
		</g>
		<polyline class="st24" points="156.41,65.62 155.92,88.46 134.15,95.66 		"/>
	</g>
	<g>
		<path class="st23" d="M120.57,104.5H77.16l-7.38-32.31c-0.21-0.91,0.49-1.78,1.42-1.78h39.83c1.02,0,1.91,0.71,2.13,1.7
			L120.57,104.5z"/>
		<rect x="94.62" y="102.65" class="st23" width="48.79" height="1.84"/>
		<g>
			<g>
				<g>
					<polygon class="st14" points="78.29,108.5 66.76,182.56 63.83,182.56 71.89,108.5 					"/>
					<polygon class="st14" points="92.35,175.12 88.47,108.5 82.07,108.5 89.08,175.12 					"/>
				</g>
				<g>
					<polygon class="st14" points="126.33,108.5 114.79,182.56 111.87,182.56 119.92,108.5 					"/>
					<polygon class="st14" points="140.39,175.12 136.51,108.5 130.1,108.5 137.11,175.12 					"/>
				</g>
			</g>
		</g>
		<g class="st4">
			<polygon points="77.54,113.34 78.29,108.5 71.89,108.5 71.49,112.19 			"/>
			<polygon points="88.47,108.5 82.07,108.5 82.68,114.32 88.88,115.5 			"/>
		</g>
		<g class="st4">
			<polygon points="125.58,113.34 126.33,108.5 119.93,108.5 119.53,112.19 			"/>
			<polygon points="136.51,108.5 130.11,108.5 130.72,114.32 136.92,115.5 			"/>
		</g>
		<rect x="60.93" y="104.5" class="st14" width="82.35" height="4.01"/>
		<line class="st25" x1="60.93" y1="107.12" x2="143.41" y2="107.12"/>
		<line class="st26" x1="110.87" y1="72.49" x2="118.37" y2="104.5"/>
		<path class="st10" d="M98.91,87.3c0,2.77-2.25,5.01-5.01,5.01c-2.77,0-5.01-2.24-5.01-5.01c0-2.77,2.24-5.01,5.01-5.01
			C96.66,82.29,98.91,84.53,98.91,87.3z"/>
		<g class="st4">
			<linearGradient id="SVGID_4_" gradientUnits="userSpaceOnUse" x1="137.113" y1="192.0361" x2="137.113" y2="169.7021">
				<stop  offset="0" style="stop-color:#FFFFFF"/>
				<stop  offset="1" style="stop-color:#000000"/>
			</linearGradient>
			<polygon class="st27" points="138.57,206.25 140.39,175.13 137.11,175.13 133.84,206.25 			"/>
			<linearGradient id="SVGID_5_" gradientUnits="userSpaceOnUse" x1="115.1727" y1="192.0361" x2="115.1727" y2="169.7021">
				<stop  offset="0" style="stop-color:#FFFFFF"/>
				<stop  offset="1" style="stop-color:#000000"/>
			</linearGradient>
			<polygon class="st28" points="118.48,206.25 114.79,182.56 111.87,182.56 114.44,206.25 			"/>
			<linearGradient id="SVGID_6_" gradientUnits="userSpaceOnUse" x1="89.0797" y1="192.0361" x2="89.0797" y2="169.7021">
				<stop  offset="0" style="stop-color:#FFFFFF"/>
				<stop  offset="1" style="stop-color:#000000"/>
			</linearGradient>
			<polygon class="st29" points="90.54,206.25 92.35,175.13 89.08,175.13 85.8,206.25 			"/>
			<linearGradient id="SVGID_7_" gradientUnits="userSpaceOnUse" x1="67.1394" y1="192.0361" x2="67.1394" y2="169.7021">
				<stop  offset="0" style="stop-color:#FFFFFF"/>
				<stop  offset="1" style="stop-color:#000000"/>
			</linearGradient>
			<polygon class="st30" points="70.45,206.25 66.76,182.56 63.83,182.56 66.41,206.25 			"/>
		</g>
	</g>
	<path class="st13" d="M112.18,27.42c0,1.6-1.3,2.9-2.9,2.9c-1.6,0-2.9-1.3-2.9-2.9c0-1.6,1.3-2.9,2.9-2.9
		C110.88,24.51,112.18,25.81,112.18,27.42z"/>
	<path class="st13" d="M33.64,55.82c0,1.6-1.3,2.9-2.9,2.9c-1.6,0-2.9-1.3-2.9-2.9c0-1.6,1.3-2.9,2.9-2.9
		C32.34,52.92,33.64,54.22,33.64,55.82z"/>
	<path class="st13" d="M98.06,58.73c0,1.6-1.3,2.9-2.9,2.9c-1.6,0-2.9-1.3-2.9-2.9c0-1.6,1.3-2.9,2.9-2.9
		C96.76,55.82,98.06,57.12,98.06,58.73z"/>
</g>
</svg>
